<svg width="11" height="6" viewBox="0 0 11 6" fill="none" xmlns="http://www.w3.org/2000/svg">
<path d="M5.00214 5.10354C4.83521 5.10387 4.67343 5.04524 4.54488 4.93783L0.258102 1.33528C0.112196 1.21299 0.0204417 1.03725 0.00302325 0.846724C-0.0143952 0.656203 0.0439493 0.466507 0.165221 0.319367C0.286493 0.172227 0.460759 0.0796967 0.649682 0.0621309C0.838605 0.0445651 1.02671 0.103403 1.17262 0.225701L5.00214 3.45358L8.83167 0.340983C8.90475 0.281133 8.98884 0.236439 9.0791 0.209469C9.16937 0.182499 9.26403 0.173785 9.35764 0.183829C9.45126 0.193872 9.54198 0.222474 9.6246 0.267991C9.70722 0.313508 9.7801 0.375043 9.83906 0.449059C9.90449 0.523142 9.95405 0.610055 9.98462 0.70435C10.0152 0.798646 10.0261 0.898293 10.0167 0.997048C10.0073 1.0958 9.97784 1.19154 9.93005 1.27826C9.88227 1.36497 9.81724 1.44081 9.73904 1.501L5.45225 4.98106C5.32002 5.07149 5.16154 5.11462 5.00214 5.10354V5.10354Z" fill="#6F6E6E"/>
</svg>
